<svg xmlns="http://www.w3.org/2000/svg" viewBox="0 0 48 48" id="quiz"><path fill-rule="evenodd" d="M19 36v6h-2c-.55 0-1 .45-1 1s.45 1 1 1h14c.55 0 1-.45 1-1s-.45-1-1-1h-2v-6h12c.8 0 1.56-.32 2.12-.88S44 33.79 44 33v-3H4v3c0 .8.32 1.56.88 2.12S6.21 36 7 36h12Zm5 2c.55 0 1 .45 1 1s-.45 1-1 1-1-.45-1-1 .45-1 1-1ZM4 28h40V7c0-.8-.32-1.56-.88-2.12S41.79 4 41 4H7c-.8 0-1.56.32-2.12.88S4 6.21 4 7v21ZM26 8c0-.55-.45-1-1-1H9c-.55 0-1 .45-1 1v16c0 .55.45 1 1 1h16c.55 0 1-.45 1-1V8Zm3 15h5c.55 0 1-.45 1-1s-.45-1-1-1h-5c-.55 0-1 .45-1 1s.45 1 1 1ZM24 9v14H10V9h14Zm-8 11c.55 0 1 .45 1 1s-.45 1-1 1-1-.45-1-1 .45-1 1-1Zm13-1h10c.55 0 1-.45 1-1s-.45-1-1-1H29c-.55 0-1 .45-1 1s.45 1 1 1Zm-11-5.5c0 .83-.67 1.5-1.5 1.5h-.49C15 15 15 16 15 16v2c0 .55.45 1 1 1s1-.45 1-1v-1.04c1.7-.24 3-1.7 3-3.46 0-1.93-1.57-3.5-3.5-3.5H15c-.55 0-1 .45-1 1s.45 1 1 1h1.5c.83 0 1.5.67 1.5 1.5ZM37 15h2.5c.55 0 1-.45 1-1s-.45-1-1-1H37c-.55 0-1 .45-1 1s.45 1 1 1Zm-8 0h5c.55 0 1-.45 1-1s-.45-1-1-1h-5c-.55 0-1 .45-1 1s.45 1 1 1Zm0-4h10c.55 0 1-.45 1-1s-.45-1-1-1H29c-.55 0-1 .45-1 1s.45 1 1 1Z"></path></svg>